<?xml version="1.0" encoding="UTF-8" standalone="no"?>
<!-- Generated by IcoMoon.io -->

<svg
   version="1.1"
   width="32"
   height="32"
   viewBox="0 0 32 32"
   id="svg6"
   sodipodi:docname="githubBN.svg"
   inkscape:version="1.1 (c68e22c387, 2021-05-23)"
   xmlns:inkscape="http://www.inkscape.org/namespaces/inkscape"
   xmlns:sodipodi="http://sodipodi.sourceforge.net/DTD/sodipodi-0.dtd"
   xmlns="http://www.w3.org/2000/svg"
   xmlns:svg="http://www.w3.org/2000/svg"
   xmlns:rdf="http://www.w3.org/1999/02/22-rdf-syntax-ns#"
   xmlns:cc="http://creativecommons.org/ns#"
   xmlns:dc="http://purl.org/dc/elements/1.1/">
  <defs
     id="defs10" />
  <sodipodi:namedview
     id="namedview8"
     pagecolor="#ffffff"
     bordercolor="#666666"
     borderopacity="1.0"
     inkscape:pageshadow="2"
     inkscape:pageopacity="0.0"
     inkscape:pagecheckerboard="0"
     showgrid="false"
     inkscape:zoom="12.875"
     inkscape:cx="16.427184"
     inkscape:cy="19.067961"
     inkscape:window-width="1920"
     inkscape:window-height="1009"
     inkscape:window-x="-8"
     inkscape:window-y="-8"
     inkscape:window-maximized="1"
     inkscape:current-layer="layer3" />
  <title
     id="title2">github</title>
  <path
     d="M16 0.395c-8.836 0-16 7.163-16 16 0 7.069 4.585 13.067 10.942 15.182 0.8 0.148 1.094-0.347 1.094-0.77 0-0.381-0.015-1.642-0.022-2.979-4.452 0.968-5.391-1.888-5.391-1.888-0.728-1.849-1.776-2.341-1.776-2.341-1.452-0.993 0.11-0.973 0.11-0.973 1.606 0.113 2.452 1.649 2.452 1.649 1.427 2.446 3.743 1.739 4.656 1.33 0.143-1.034 0.558-1.74 1.016-2.14-3.554-0.404-7.29-1.777-7.29-7.907 0-1.747 0.625-3.174 1.649-4.295-0.166-0.403-0.714-2.030 0.155-4.234 0 0 1.344-0.43 4.401 1.64 1.276-0.355 2.645-0.532 4.005-0.539 1.359 0.006 2.729 0.184 4.008 0.539 3.054-2.070 4.395-1.64 4.395-1.64 0.871 2.204 0.323 3.831 0.157 4.234 1.026 1.12 1.647 2.548 1.647 4.295 0 6.145-3.743 7.498-7.306 7.895 0.574 0.497 1.085 1.47 1.085 2.963 0 2.141-0.019 3.864-0.019 4.391 0 0.426 0.288 0.925 1.099 0.768 6.354-2.118 10.933-8.113 10.933-15.18 0-8.837-7.164-16-16-16z"
     id="path4" />
  <g
     inkscape:groupmode="layer"
     id="layer3"
     inkscape:label="fondo"
     style="display:inline">
    <rect
       style="fill:#000000;fill-opacity:1;stroke-width:5;stroke-linejoin:round;stroke-miterlimit:5.2"
       id="rect2553"
       width="32.000004"
       height="32.155338"
       x="0.077669814"
       y="-0.077669799"
       ry="4.038835" />
  </g>
  <g
     inkscape:groupmode="layer"
     id="layer2"
     inkscape:label="gato">
    <path
       style="fill:#000000;fill-opacity:1;stroke-width:0.38835;stroke-linejoin:round;stroke-miterlimit:5.2"
       d="M 10.330097,31.312517 C 6.0406,29.606478 2.801862,26.387057 1.1375079,22.174757 0.42051279,20.36012 0.15292363,18.968687 0.09939737,16.776699 0.05557064,14.981923 0.14858989,14.036635 0.51171072,12.58665 1.8524965,7.2327353 5.809239,2.9689681 11.031546,1.2505246 c 4.01706,-1.32184685 8.171182,-1.03027202 11.99758,0.8421016 4.225763,2.067795 7.308926,5.8992048 8.465826,10.5203818 0.356305,1.423241 0.449269,2.377446 0.405651,4.163691 -0.05353,2.191988 -0.321116,3.583421 -1.038111,5.398058 -1.466277,3.710988 -4.188818,6.697023 -7.716861,8.463714 -1.905113,0.953998 -2.589714,1.104739 -2.948091,0.649138 -0.152429,-0.193784 -0.158728,-0.301932 -0.159291,-2.734977 -3.11e-4,-1.393268 -0.03624,-2.752941 -0.07982,-3.021495 -0.108046,-0.665809 -0.34698,-1.274457 -0.662655,-1.688014 -0.304502,-0.39892 -0.404084,-0.332099 0.803193,-0.538954 3.365481,-0.576644 5.27208,-2.318172 5.930692,-5.417223 0.242619,-1.141626 0.247356,-3.173337 0.0094,-4.033404 -0.199468,-0.720966 -0.582522,-1.49757 -1.05452,-2.137934 l -0.352741,-0.478567 0.110898,-0.414637 C 25.012834,9.8123705 24.960036,8.5842617 24.600192,7.5078263 L 24.427184,6.9902913 24.093567,6.9662359 C 23.352189,6.9127793 21.926884,7.4329174 20.589021,8.2451526 L 20.009322,8.5970975 19.189127,8.432445 C 17.036483,8.0003061 14.962215,8.0005607 12.80699,8.433228 L 11.982913,8.5986641 11.486602,8.2856085 C 10.240706,7.499741 8.6479379,6.9127701 7.9064334,6.9662359 L 7.5728155,6.9902913 7.3998078,7.5078263 C 7.0399645,8.5842617 6.9871654,9.8123705 7.2573071,10.822404 l 0.1108979,0.414637 -0.352741,0.478567 c -0.4719981,0.640364 -0.8550526,1.416968 -1.0545206,2.137934 -0.237953,0.860067 -0.2332168,2.891778 0.0094,4.033404 0.6074915,2.858507 2.2503558,4.540019 5.1364506,5.257285 0.405825,0.100857 0.895146,0.205468 1.087379,0.232468 0.192233,0.027 0.448835,0.06818 0.570227,0.0915 l 0.220713,0.04241 -0.196397,0.205857 c -0.248101,0.260053 -0.564542,0.939285 -0.682421,1.464795 l -0.09075,0.404569 -0.473792,0.163793 C 10.80674,26.00373 9.9960373,26.0362 9.3492971,25.837438 8.6183581,25.612801 8.1398866,25.223719 7.5160144,24.346653 6.886689,23.461922 6.5642363,23.160895 5.9170582,22.853942 5.5384399,22.674365 5.3135866,22.62014 4.9326973,22.616557 c -0.8259689,-0.0078 -0.9699293,0.291247 -0.37364,0.776082 0.9647337,0.784413 1.3851164,1.2857 1.8295702,2.181679 0.5287822,1.065979 0.7821278,1.393836 1.3915069,1.800763 0.8887005,0.593452 2.0953747,0.791218 3.6567586,0.59932 l 0.524272,-0.06443 v 1.594084 c 0,1.541474 -0.0058,1.600793 -0.174878,1.797392 -0.276609,0.321576 -0.668013,0.324553 -1.45619,0.01107 z"
       id="path2944" />
    <path
       style="fill:#ffffff;fill-opacity:1;stroke-width:0.38835;stroke-linejoin:round;stroke-miterlimit:5.2"
       d="M 10.320435,31.308801 C 6.4653037,29.776246 3.4626781,27.023614 1.6700612,23.378641 0.56045359,21.122447 0.0776699,18.983212 0.0776699,16.322685 c 0,-1.476169 0.12317898,-2.493455 0.47128949,-3.892195 C 1.5159661,8.5449709 4.134916,4.9890618 7.6269743,2.8202356 10.512457,1.0281372 14.145135,0.17582624 17.486916,0.50686294 24.865497,1.2377849 30.72922,6.8405788 31.801772,14.184725 c 0.139971,0.958428 0.160516,3.128357 0.0389,4.108574 -0.221904,1.788549 -0.727677,3.491549 -1.511684,5.090021 -1.549766,3.159746 -4.052226,5.687215 -7.183358,7.255151 -1.905113,0.953998 -2.589714,1.104739 -2.948091,0.649138 -0.152265,-0.193576 -0.158767,-0.302971 -0.160244,-2.696142 -8.46e-4,-1.371909 -0.03527,-2.727581 -0.0765,-3.012605 -0.09847,-0.680796 -0.339034,-1.308662 -0.665029,-1.735739 -0.304502,-0.39892 -0.404084,-0.332099 0.803193,-0.538954 1.977469,-0.338821 3.538434,-1.146279 4.54697,-2.352063 0.479262,-0.572994 1.083099,-1.81647 1.289711,-2.655889 0.342185,-1.390215 0.39298,-3.211031 0.12127,-4.347097 -0.156935,-0.656168 -0.627555,-1.639097 -1.069392,-2.233512 L 24.631792,11.237041 24.74269,10.822404 C 25.011097,9.8188668 24.935746,8.3750726 24.562314,7.3661592 24.428526,7.0046998 24.41048,6.9893691 24.09157,6.9662359 23.358676,6.9130729 21.846853,7.4666715 20.596203,8.2461678 L 20.027329,8.6007309 19.19813,8.4363915 C 16.948323,7.9905002 14.682593,8.0157042 12.427184,8.5117118 L 12,8.6056575 11.456311,8.2707363 C 10.159845,7.4720929 8.6394501,6.9133821 7.9064334,6.9662359 l -0.3336179,0.024055 -0.17578,0.5260052 C 7.0441462,8.5722843 6.9916174,9.8208668 7.2579452,10.822404 L 7.368205,11.237041 7.0124795,11.715608 C 6.5717446,12.30854 6.1007966,13.291164 5.942011,13.94912 c -0.3991061,1.653766 -0.132815,4.116109 0.6165767,5.701365 0.6172471,1.30572 1.420669,2.140125 2.6841307,2.787644 0.9800486,0.50227 1.8627286,0.763561 3.4340946,1.016561 l 0.288463,0.04645 -0.262466,0.343849 c -0.271327,0.355458 -0.535321,0.969312 -0.626978,1.457885 -0.04891,0.26072 -0.08608,0.291943 -0.530234,0.445463 -0.738709,0.255331 -1.5485262,0.288185 -2.1963009,0.08911 C 8.653412,25.623574 8.1387596,25.223595 7.630945,24.501963 6.7084231,23.191011 5.9014777,22.625671 4.9398827,22.616624 c -0.8334171,-0.0078 -0.9792915,0.28941 -0.3808254,0.776015 0.9746743,0.792495 1.3756194,1.27656 1.8832443,2.273662 0.3512428,0.689927 0.6007226,1.072742 0.8700933,1.335117 0.931369,0.907182 2.362294,1.225597 4.2798381,0.952367 l 0.368932,-0.05257 v 1.598459 c 0,1.546012 -0.0057,1.60513 -0.174878,1.801767 -0.277611,0.322742 -0.667582,0.3247 -1.465852,0.0074 z"
       id="path3020" />
  </g>
  <metadata
     id="metadata3509">
    <rdf:RDF>
      <cc:Work
         rdf:about="">
        <dc:title>github</dc:title>
      </cc:Work>
    </rdf:RDF>
  </metadata>
</svg>
